<mxfile host="app.diagrams.net" modified="2023-08-09T09:29:49.097Z" agent="Mozilla/5.0 (Macintosh; Intel Mac OS X 10_15_7) AppleWebKit/537.36 (KHTML, like Gecko) Chrome/115.0.0.0 Safari/537.36" etag="H9G_A_tzFHDwMTqGmB_Z" version="21.6.6" type="github">
  <diagram name="第 1 页" id="csYjpUrJPohBVBxoAVNm">
    <mxGraphModel dx="954" dy="506" grid="1" gridSize="10" guides="1" tooltips="1" connect="1" arrows="1" fold="1" page="1" pageScale="1" pageWidth="827" pageHeight="1169" math="0" shadow="0">
      <root>
        <mxCell id="0" />
        <mxCell id="1" parent="0" />
        <mxCell id="CpVF5S1lUZrK0vA175yy-1" style="edgeStyle=orthogonalEdgeStyle;rounded=0;orthogonalLoop=1;jettySize=auto;html=1;entryX=0.5;entryY=0;entryDx=0;entryDy=0;" edge="1" parent="1" source="CpVF5S1lUZrK0vA175yy-2" target="CpVF5S1lUZrK0vA175yy-4">
          <mxGeometry relative="1" as="geometry" />
        </mxCell>
        <mxCell id="CpVF5S1lUZrK0vA175yy-2" value="&lt;font style=&quot;font-size: 16px;&quot;&gt;开始&lt;/font&gt;" style="rounded=1;whiteSpace=wrap;html=1;" vertex="1" parent="1">
          <mxGeometry x="354" y="120" width="120" height="60" as="geometry" />
        </mxCell>
        <mxCell id="CpVF5S1lUZrK0vA175yy-3" style="edgeStyle=orthogonalEdgeStyle;rounded=0;orthogonalLoop=1;jettySize=auto;html=1;entryX=0.5;entryY=0;entryDx=0;entryDy=0;" edge="1" parent="1" source="CpVF5S1lUZrK0vA175yy-4" target="CpVF5S1lUZrK0vA175yy-6">
          <mxGeometry relative="1" as="geometry" />
        </mxCell>
        <mxCell id="CpVF5S1lUZrK0vA175yy-4" value="&lt;span style=&quot;font-size: 16px;&quot;&gt;获取配置&lt;/span&gt;" style="rounded=0;whiteSpace=wrap;html=1;" vertex="1" parent="1">
          <mxGeometry x="354" y="220" width="120" height="60" as="geometry" />
        </mxCell>
        <mxCell id="CpVF5S1lUZrK0vA175yy-5" style="edgeStyle=orthogonalEdgeStyle;rounded=0;orthogonalLoop=1;jettySize=auto;html=1;entryX=0.5;entryY=0;entryDx=0;entryDy=0;" edge="1" parent="1" source="CpVF5S1lUZrK0vA175yy-6">
          <mxGeometry relative="1" as="geometry">
            <mxPoint x="414" y="420" as="targetPoint" />
          </mxGeometry>
        </mxCell>
        <mxCell id="CpVF5S1lUZrK0vA175yy-6" value="&lt;font style=&quot;font-size: 16px;&quot;&gt;redis查询配置项&lt;/font&gt;" style="rounded=0;whiteSpace=wrap;html=1;" vertex="1" parent="1">
          <mxGeometry x="354" y="320" width="120" height="60" as="geometry" />
        </mxCell>
        <mxCell id="CpVF5S1lUZrK0vA175yy-7" style="edgeStyle=orthogonalEdgeStyle;rounded=0;orthogonalLoop=1;jettySize=auto;html=1;entryX=1;entryY=0.5;entryDx=0;entryDy=0;exitX=1;exitY=0.5;exitDx=0;exitDy=0;" edge="1" parent="1" source="CpVF5S1lUZrK0vA175yy-14" target="CpVF5S1lUZrK0vA175yy-12">
          <mxGeometry relative="1" as="geometry">
            <mxPoint x="475" y="650" as="sourcePoint" />
            <mxPoint x="590" y="540" as="targetPoint" />
            <Array as="points">
              <mxPoint x="540" y="460" />
              <mxPoint x="540" y="810" />
            </Array>
          </mxGeometry>
        </mxCell>
        <mxCell id="CpVF5S1lUZrK0vA175yy-10" style="edgeStyle=orthogonalEdgeStyle;rounded=0;orthogonalLoop=1;jettySize=auto;html=1;" edge="1" parent="1" source="CpVF5S1lUZrK0vA175yy-11" target="CpVF5S1lUZrK0vA175yy-12">
          <mxGeometry relative="1" as="geometry" />
        </mxCell>
        <mxCell id="CpVF5S1lUZrK0vA175yy-11" value="&lt;font style=&quot;font-size: 16px;&quot;&gt;更新redis&lt;/font&gt;" style="rounded=0;whiteSpace=wrap;html=1;" vertex="1" parent="1">
          <mxGeometry x="355" y="660" width="120" height="60" as="geometry" />
        </mxCell>
        <mxCell id="CpVF5S1lUZrK0vA175yy-12" value="&lt;font style=&quot;font-size: 16px;&quot;&gt;结束&lt;/font&gt;" style="rounded=1;whiteSpace=wrap;html=1;" vertex="1" parent="1">
          <mxGeometry x="355" y="780" width="120" height="60" as="geometry" />
        </mxCell>
        <mxCell id="CpVF5S1lUZrK0vA175yy-13" style="edgeStyle=orthogonalEdgeStyle;rounded=0;orthogonalLoop=1;jettySize=auto;html=1;entryX=0.488;entryY=-0.008;entryDx=0;entryDy=0;entryPerimeter=0;" edge="1" parent="1" source="CpVF5S1lUZrK0vA175yy-14" target="CpVF5S1lUZrK0vA175yy-16">
          <mxGeometry relative="1" as="geometry" />
        </mxCell>
        <mxCell id="CpVF5S1lUZrK0vA175yy-14" value="&lt;font style=&quot;font-size: 14px;&quot;&gt;是否存在此配置&lt;/font&gt;" style="rhombus;whiteSpace=wrap;html=1;" vertex="1" parent="1">
          <mxGeometry x="354" y="420" width="120" height="80" as="geometry" />
        </mxCell>
        <mxCell id="CpVF5S1lUZrK0vA175yy-15" style="edgeStyle=orthogonalEdgeStyle;rounded=0;orthogonalLoop=1;jettySize=auto;html=1;entryX=0.5;entryY=0;entryDx=0;entryDy=0;" edge="1" parent="1" source="CpVF5S1lUZrK0vA175yy-16" target="CpVF5S1lUZrK0vA175yy-11">
          <mxGeometry relative="1" as="geometry" />
        </mxCell>
        <mxCell id="CpVF5S1lUZrK0vA175yy-16" value="&lt;span style=&quot;font-size: 16px;&quot;&gt;数据库中查询配置项&lt;/span&gt;" style="rounded=0;whiteSpace=wrap;html=1;" vertex="1" parent="1">
          <mxGeometry x="355" y="540" width="120" height="60" as="geometry" />
        </mxCell>
        <mxCell id="CpVF5S1lUZrK0vA175yy-17" value="否" style="text;html=1;align=center;verticalAlign=middle;resizable=0;points=[];autosize=1;strokeColor=none;fillColor=none;" vertex="1" parent="1">
          <mxGeometry x="414" y="500" width="40" height="30" as="geometry" />
        </mxCell>
        <mxCell id="CpVF5S1lUZrK0vA175yy-18" value="是" style="text;html=1;align=center;verticalAlign=middle;resizable=0;points=[];autosize=1;strokeColor=none;fillColor=none;" vertex="1" parent="1">
          <mxGeometry x="480" y="430" width="40" height="30" as="geometry" />
        </mxCell>
      </root>
    </mxGraphModel>
  </diagram>
</mxfile>
